<svg width="510" height="159" viewBox="0 0 510 159" version="1.1" xmlns="http://www.w3.org/2000/svg" xmlns:xlink="http://www.w3.org/1999/xlink">
<title>Group 2</title>
<desc>Created using Figma</desc>
<g id="Canvas" transform="translate(-747 1168)">
<g id="Group 2">
<g id="BE">
<use xlink:href="#path0_fill" transform="matrix(2.77556e-17 -1 1 2.77556e-17 763.5 -1037.24)" fill="#FFFFFF"/>
<use xlink:href="#path1_fill" transform="matrix(2.77556e-17 -1 1 2.77556e-17 763.5 -1037.24)" fill="#FFFFFF"/>
</g>
<g id="Rectangle">
<use xlink:href="#path2_fill" transform="matrix(0.999986 -0.0052763 0.0052763 0.999986 880.019 -1095.06)" fill="#FFFC59"/>
</g>
<g id="Rectangle">
<use xlink:href="#path3_fill" transform="matrix(0.999986 -0.0052763 0.0052763 0.999986 880.01 -1085.85)" fill="#77D76F"/>
</g>
<g id="Rectangle">
<use xlink:href="#path4_fill" transform="matrix(0.999986 -0.0052763 0.0052763 0.999986 880.007 -1076.64)" fill="#2F5CFC"/>
</g>
<g id="Rectangle">
<use xlink:href="#path5_fill" transform="matrix(0.999986 -0.0052763 0.0052763 0.999986 880 -1067.42)" fill="#9525A5"/>
</g>
<g id="Rectangle">
<use xlink:href="#path6_fill" transform="matrix(0.999986 -0.0052763 0.0052763 0.999986 880.027 -1104.27)" fill="#FE9D25"/>
</g>
<g id="P">
<use xlink:href="#path7_fill" transform="translate(880.148 -1145.2)" fill="#FFFFFF"/>
</g>
<g id="Rectangle">
<use xlink:href="#path8_fill" transform="matrix(0.999986 -0.0052763 0.0052763 0.999986 906.014 -1113.62)" fill="#F95553"/>
</g>
<g id="R">
<use xlink:href="#path9_fill" transform="translate(956.46 -1144.2)" fill="#FFFFFF"/>
</g>
<g id="O">
<use xlink:href="#path10_fill" transform="translate(1030.83 -1145.45)" fill="#FFFFFF"/>
</g>
<g id="Rectangle">
<use xlink:href="#path11_fill" transform="matrix(0.999986 -0.0052763 0.0052763 0.999986 1025.92 -1105.04)" fill="#FE9D25"/>
</g>
<g id="Rectangle">
<use xlink:href="#path12_fill" transform="matrix(0.999986 -0.0052763 0.0052763 0.999986 1025.89 -1095.77)" fill="#FFFC59"/>
</g>
<g id="Rectangle">
<use xlink:href="#path13_fill" transform="matrix(0.999986 -0.0052763 0.0052763 0.999986 1026.98 -1114.26)" fill="#F95553"/>
</g>
<g id="Rectangle">
<use xlink:href="#path11_fill" transform="matrix(0.999986 -0.0052763 0.0052763 0.999986 952 -1104.6)" fill="#FE9D25"/>
</g>
<g id="Rectangle">
<use xlink:href="#path13_fill" transform="matrix(0.999986 -0.0052763 0.0052763 0.999986 953.052 -1113.82)" fill="#F95553"/>
</g>
<g id="Rectangle">
<use xlink:href="#path14_fill" transform="matrix(0.999986 -0.0052763 0.0052763 0.999986 1022.48 -1086.6)" fill="#77D76F"/>
</g>
<g id="Rectangle">
<use xlink:href="#path15_fill" transform="matrix(0.999986 -0.0052763 0.0052763 0.999986 1022.98 -1077.39)" fill="#2F5CFC"/>
</g>
<g id="Rectangle">
<use xlink:href="#path16_fill" transform="matrix(0.999986 -0.0052763 0.0052763 0.999986 1022.63 -1068.18)" fill="#9525A5"/>
</g>
<g id="U">
<use xlink:href="#path17_fill" transform="translate(1107.46 -1143.2)" fill="#FFFFFF"/>
</g>
<g id="Group">
<g id="Rectangle">
<use xlink:href="#path11_fill" transform="matrix(0.999986 -0.0052763 0.0052763 0.999986 1101.44 -1105.6)" fill="#FE9D25"/>
</g>
<g id="Rectangle">
<use xlink:href="#path12_fill" transform="matrix(0.999986 -0.0052763 0.0052763 0.999986 1101.41 -1096.34)" fill="#FFFC59"/>
</g>
<g id="Rectangle">
<use xlink:href="#path13_fill" transform="matrix(0.999986 -0.0052763 0.0052763 0.999986 1102.5 -1114.82)" fill="#F95553"/>
</g>
<g id="Rectangle">
<use xlink:href="#path14_fill" transform="matrix(0.999986 -0.0052763 0.0052763 0.999986 1098 -1087.16)" fill="#77D76F"/>
</g>
<g id="Rectangle">
<use xlink:href="#path15_fill" transform="matrix(0.999986 -0.0052763 0.0052763 0.999986 1098.5 -1077.95)" fill="#2F5CFC"/>
</g>
<g id="Rectangle">
<use xlink:href="#path16_fill" transform="matrix(0.999986 -0.0052763 0.0052763 0.999986 1098.15 -1068.74)" fill="#9525A5"/>
</g>
</g>
<g id="D">
<use xlink:href="#path18_fill" transform="translate(1188.46 -1142.2)" fill="#FFFFFF"/>
</g>
<g id="Group">
<g id="Rectangle">
<use xlink:href="#path11_fill" transform="matrix(0.999986 -0.0052763 0.0052763 0.999986 1182.44 -1105.6)" fill="#FE9D25"/>
</g>
<g id="Rectangle">
<use xlink:href="#path12_fill" transform="matrix(0.999986 -0.0052763 0.0052763 0.999986 1182.41 -1096.34)" fill="#FFFC59"/>
</g>
<g id="Rectangle">
<use xlink:href="#path13_fill" transform="matrix(0.999986 -0.0052763 0.0052763 0.999986 1183.5 -1114.82)" fill="#F95553"/>
</g>
<g id="Rectangle">
<use xlink:href="#path14_fill" transform="matrix(0.999986 -0.0052763 0.0052763 0.999986 1179 -1087.16)" fill="#77D76F"/>
</g>
<g id="Rectangle">
<use xlink:href="#path15_fill" transform="matrix(0.999986 -0.0052763 0.0052763 0.999986 1179.5 -1077.95)" fill="#2F5CFC"/>
</g>
<g id="Rectangle">
<use xlink:href="#path16_fill" transform="matrix(0.999986 -0.0052763 0.0052763 0.999986 1179.15 -1068.74)" fill="#9525A5"/>
</g>
</g>
</g>
</g>
<defs>
<path id="path0_fill" d="M 49.59 73.95C 49.6867 82.65 47.3667 89.4167 42.63 94.25C 37.8933 99.0833 31.5617 101.5 23.635 101.5L 1.45 101.5C 0.483334 101.5 0 101.017 0 100.05L 0 1.45C 0 0.483333 0.483334 0 1.45 0L 22.33 0C 30.6433 0 37.1683 2.32 41.905 6.96C 46.6417 11.5033 49.01 18.0283 49.01 26.535C 49.01 37.3617 44.9983 44.7567 36.975 48.72C 36.7817 48.8167 36.685 48.9133 36.685 49.01C 36.685 49.1067 36.7333 49.2033 36.83 49.3C 45.3367 54.23 49.59 62.4467 49.59 73.95ZM 10.875 8.99C 10.4883 8.99 10.295 9.18333 10.295 9.57L 10.295 44.515C 10.295 44.9017 10.4883 45.095 10.875 45.095L 22.33 45.095C 27.55 45.095 31.61 43.5483 34.51 40.455C 37.41 37.3617 38.86 33.0117 38.86 27.405C 38.86 21.605 37.41 17.11 34.51 13.92C 31.61 10.6333 27.55 8.99 22.33 8.99L 10.875 8.99ZM 22.91 92.365C 28.0333 92.365 32.045 90.6733 34.945 87.29C 37.845 83.81 39.295 78.9767 39.295 72.79C 39.295 66.5067 37.845 61.625 34.945 58.145C 32.045 54.665 28.0333 52.925 22.91 52.925L 10.875 52.925C 10.4883 52.925 10.295 53.1183 10.295 53.505L 10.295 91.785C 10.295 92.1717 10.4883 92.365 10.875 92.365L 22.91 92.365Z"/>
<path id="path1_fill" d="M 108.661 7.54C 108.661 8.50666 108.177 8.99 107.211 8.99L 73.5705 8.99C 73.1838 8.99 72.9905 9.18333 72.9905 9.57L 72.9905 45.53C 72.9905 45.9167 73.1838 46.11 73.5705 46.11L 94.7405 46.11C 95.7072 46.11 96.1905 46.5933 96.1905 47.56L 96.1905 53.795C 96.1905 54.7617 95.7072 55.245 94.7405 55.245L 73.5705 55.245C 73.1838 55.245 72.9905 55.4383 72.9905 55.825L 72.9905 91.93C 72.9905 92.3167 73.1838 92.51 73.5705 92.51L 107.211 92.51C 108.177 92.51 108.661 92.9933 108.661 93.96L 108.661 100.05C 108.661 101.017 108.177 101.5 107.211 101.5L 64.1455 101.5C 63.1788 101.5 62.6955 101.017 62.6955 100.05L 62.6955 1.45C 62.6955 0.483333 63.1788 0 64.1455 0L 107.211 0C 108.177 0 108.661 0.483333 108.661 1.45L 108.661 7.54Z"/>
<path id="path2_fill" d="M 0 0L 372.69 0L 372.69 6.1408L 0 6.1408L 0 0Z"/>
<path id="path3_fill" d="M 0 0L 372.594 0L 372.568 6.3199L 0 6.1408L 0 0Z"/>
<path id="path4_fill" d="M 0 0L 372.916 0L 372.916 6.1408L 0 6.1408L 0 0Z"/>
<path id="path5_fill" d="M 0 0L 372.283 0.0481602L 372.258 6.1408L 0 6.1408L 0 0Z"/>
<path id="path6_fill" d="M 0 0L 372.892 0L 372.892 6.1408L 0 6.1408L 0 0Z"/>
<path id="path7_fill" d="M 35.568 0C 41.6 0 46.904 1.456 51.48 4.368C 56.16 7.176 59.8 11.18 62.4 16.38C 65 21.58 66.3 27.508 66.3 34.164C 66.3 40.716 65.052 46.488 62.556 51.48C 60.164 56.368 56.732 60.164 52.26 62.868C 47.788 65.572 42.64 66.924 36.816 66.924L 26.676 66.924C 26.156 66.924 25.896 67.184 25.896 67.704L 25.896 107.328C 25.896 107.848 25.688 108.316 25.272 108.732C 24.96 109.044 24.544 109.2 24.024 109.2L 1.872 109.2C 1.352 109.2 0.884 109.044 0.468 108.732C 0.156 108.316 0 107.848 0 107.328L 0 1.87199C 0 1.352 0.156 0.935997 0.468 0.624002C 0.884 0.208001 1.352 0 1.872 0L 35.568 0ZM 31.044 46.956C 33.852 46.956 36.088 45.916 37.752 43.836C 39.52 41.652 40.404 38.636 40.404 34.788C 40.404 30.732 39.52 27.612 37.752 25.428C 36.088 23.244 33.852 22.152 31.044 22.152L 26.676 22.152C 26.156 22.152 25.896 22.412 25.896 22.932L 25.896 46.176C 25.896 46.696 26.156 46.956 26.676 46.956L 31.044 46.956Z"/>
<path id="path8_fill" d="M 0.0243259 0.120286L 346.591 0L 346.591 6.1408L 0 6.1202L 0.0243259 0.120286Z"/>
<path id="path9_fill" d="M 42.588 109.2C 41.444 109.2 40.716 108.68 40.404 107.64L 29.796 66.3C 29.692 65.884 29.432 65.676 29.016 65.676L 26.676 65.676C 26.156 65.676 25.896 65.936 25.896 66.456L 25.896 107.328C 25.896 107.848 25.688 108.316 25.272 108.732C 24.96 109.044 24.544 109.2 24.024 109.2L 1.872 109.2C 1.352 109.2 0.884 109.044 0.468 108.732C 0.156 108.316 0 107.848 0 107.328L 0 1.87199C 0 1.352 0.156 0.935997 0.468 0.624002C 0.884 0.208001 1.352 0 1.872 0L 35.412 0C 41.444 0 46.8 1.456 51.48 4.368C 56.16 7.176 59.748 11.18 62.244 16.38C 64.844 21.476 66.144 27.3 66.144 33.852C 66.144 39.676 65.052 44.928 62.868 49.608C 60.788 54.184 57.824 57.876 53.976 60.684C 53.768 60.788 53.612 60.944 53.508 61.152C 53.404 61.256 53.404 61.412 53.508 61.62L 66.924 107.016L 67.08 107.64C 67.08 108.68 66.508 109.2 65.364 109.2L 42.588 109.2ZM 26.676 22.152C 26.156 22.152 25.896 22.412 25.896 22.932L 25.896 45.084C 25.896 45.604 26.156 45.864 26.676 45.864L 31.044 45.864C 33.852 45.864 36.088 44.824 37.752 42.744C 39.416 40.664 40.248 37.804 40.248 34.164C 40.248 30.316 39.416 27.352 37.752 25.272C 36.088 23.192 33.852 22.152 31.044 22.152L 26.676 22.152Z"/>
<path id="path10_fill" d="M 33.072 111.696C 22.984 111.696 14.924 108.784 8.892 102.96C 2.964 97.136 0 89.284 0 79.404L 0 32.292C 0 22.516 2.964 14.716 8.892 8.892C 14.924 2.964 22.984 0 33.072 0C 43.056 0 51.064 2.964 57.096 8.892C 63.232 14.716 66.3 22.516 66.3 32.292L 66.3 79.404C 66.3 89.284 63.232 97.136 57.096 102.96C 51.064 108.784 43.056 111.696 33.072 111.696ZM 33.072 89.544C 35.36 89.544 37.128 88.764 38.376 87.204C 39.728 85.54 40.404 83.304 40.404 80.496L 40.404 31.2C 40.404 28.392 39.728 26.208 38.376 24.648C 37.128 22.984 35.36 22.152 33.072 22.152C 30.784 22.152 29.016 22.984 27.768 24.648C 26.52 26.208 25.896 28.392 25.896 31.2L 25.896 80.496C 25.896 83.304 26.52 85.54 27.768 87.204C 29.016 88.764 30.784 89.544 33.072 89.544Z"/>
<path id="path11_fill" d="M 0 0L 34.7441 0L 34.7441 6.1408L 0 6.1408L 0 0Z"/>
<path id="path12_fill" d="M -6.82121e-13 0L 34.7441 0L 34.7441 6.1408L -6.82121e-13 6.1408L -6.82121e-13 0Z"/>
<path id="path13_fill" d="M 0.00236621 0.120286L 33.7133 0L 33.7133 6.1408L 0 6.1202L 0.00236621 0.120286Z"/>
<path id="path14_fill" d="M 0 0L 41.1525 0L 41.1496 6.3199L 0 6.1408L 0 0Z"/>
<path id="path15_fill" d="M 0 0L 40.054 0L 40.054 6.1408L 0 6.1408L 0 0Z"/>
<path id="path16_fill" d="M 0 0L 38.0793 0.0481602L 38.0767 6.1408L 0 6.1408L 0 0Z"/>
<path id="path17_fill" d="M 32.448 110.448C 26 110.448 20.332 109.096 15.444 106.392C 10.556 103.584 6.76 99.684 4.056 94.692C 1.352 89.7 0 83.928 0 77.376L 0 1.87199C 0 1.352 0.156 0.935997 0.468 0.624002C 0.884 0.208001 1.352 0 1.872 0L 24.024 0C 24.544 0 24.96 0.208001 25.272 0.624002C 25.688 0.935997 25.896 1.352 25.896 1.87199L 25.896 79.872C 25.896 82.368 26.468 84.396 27.612 85.956C 28.86 87.516 30.472 88.296 32.448 88.296C 34.424 88.296 35.984 87.516 37.128 85.956C 38.376 84.396 39 82.368 39 79.872L 39 1.87199C 39 1.352 39.156 0.935997 39.468 0.624002C 39.884 0.208001 40.352 0 40.872 0L 63.024 0C 63.544 0 63.96 0.208001 64.272 0.624002C 64.688 0.935997 64.896 1.352 64.896 1.87199L 64.896 77.376C 64.896 83.928 63.544 89.7 60.84 94.692C 58.136 99.684 54.34 103.584 49.452 106.392C 44.564 109.096 38.896 110.448 32.448 110.448Z"/>
<path id="path18_fill" d="M 1.872 109.2C 1.352 109.2 0.884 109.044 0.468 108.732C 0.156 108.316 0 107.848 0 107.328L 0 1.87199C 0 1.352 0.156 0.935997 0.468 0.624002C 0.884 0.208001 1.352 0 1.872 0L 31.668 0C 41.652 0 49.66 2.808 55.692 8.42399C 61.724 14.04 64.74 21.476 64.74 30.732L 64.74 78.468C 64.74 87.724 61.724 95.16 55.692 100.776C 49.66 106.392 41.652 109.2 31.668 109.2L 1.872 109.2ZM 25.896 86.268C 25.896 86.788 26.156 87.048 26.676 87.048L 31.044 86.892C 33.228 86.788 35.048 85.852 36.504 84.084C 37.96 82.212 38.74 79.768 38.844 76.752L 38.844 32.448C 38.844 29.328 38.116 26.832 36.66 24.96C 35.204 23.088 33.28 22.152 30.888 22.152L 26.676 22.152C 26.156 22.152 25.896 22.412 25.896 22.932L 25.896 86.268Z"/>
</defs>
</svg>
